<?xml version="1.0" encoding="UTF-8" standalone="no"?>
<!-- Created with Inkscape (http://www.inkscape.org/) -->

<svg
   version="1.1"
   id="svg55"
   width="350mm"
   height="95mm"
   viewBox="0 0 1120 304"
   sodipodi:docname="chouetteIcone.svg"
   inkscape:version="1.1.1 (3bf5ae0d25, 2021-09-20, custom)"
   inkscape:export-filename="/home/cloisd/Bureau/ChouetteConcept/logo_web.png"
   inkscape:export-xdpi="96"
   inkscape:export-ydpi="96"
   xmlns:inkscape="http://www.inkscape.org/namespaces/inkscape"
   xmlns:sodipodi="http://sodipodi.sourceforge.net/DTD/sodipodi-0.dtd"
   xmlns="http://www.w3.org/2000/svg"
   xmlns:svg="http://www.w3.org/2000/svg">
  <sodipodi:namedview
     id="namedview16"
     pagecolor="#ffffff"
     bordercolor="#666666"
     borderopacity="1.0"
     inkscape:pageshadow="2"
     inkscape:pageopacity="0.0"
     inkscape:pagecheckerboard="false"
     inkscape:document-units="px"
     showgrid="false"
     inkscape:zoom="0.6141022"
     inkscape:cx="632.63085"
     inkscape:cy="106.65977"
     inkscape:window-width="1920"
     inkscape:window-height="1052"
     inkscape:window-x="1600"
     inkscape:window-y="0"
     inkscape:window-maximized="1"
     inkscape:current-layer="g39723"
     width="150mm"
     showguides="false" />
  <defs
     id="defs59" />
  <rect
     style="fill:none;fill-opacity:1;stroke-width:1.01618"
     id="rect11750"
     width="449.80161"
     height="442.32974"
     x="-1.2695313e-07"
     y="-1.640625e-07"
     ry="42.678314"
     clip-path="none" />
  <g
     id="g3283"
     transform="translate(-68.372144,-151.76452)"
     style="display:inline">
    <path
       style="fill:#23445a;fill-opacity:1;stroke-width:1.41421"
       d="M 165.06229,442.65074 C 152.97057,440.00877 132.50516,429.8838 121.95348,421.3233 106.27077,408.6 92.1797,387.38236 86.451752,367.86651 c -3.612504,-12.30826 -3.672309,-44.89675 -0.103813,-56.56854 6.085696,-19.90502 20.153981,-41.09004 35.012541,-52.72436 24.15412,-18.91279 51.89406,-26.84765 80.27368,-22.96186 24.01519,3.2882 42.54654,12.5959 60.39073,30.3323 13.75824,13.67513 20.21241,23.12953 43.02934,63.03158 22.6437,39.59908 30.78868,51.83911 41.869,62.91943 18.88399,18.88399 29.99588,23.82252 53.59606,23.82005 16.92742,-10e-4 25.95041,-2.24794 39.51855,-9.83764 18.02067,-10.08034 33.07622,-32.71091 36.4186,-54.74217 7.63097,-50.29937 -35.02706,-93.57482 -85.97433,-87.21871 -21.03513,2.62432 -42.20773,16.90849 -58.12459,39.21397 -3.48299,4.88098 -6.75415,8.87031 -7.26924,8.86518 -1.36754,-0.0136 -14.37155,-23.33538 -14.37155,-25.77435 0,-3.45385 18.05773,-23.47843 27.34272,-30.32093 11.09985,-8.17992 21.60603,-13.47945 34.93252,-17.62069 13.68195,-4.25169 39.58557,-4.63688 53.64551,-0.79772 36.487,9.96302 66.241,39.18748 76.03542,74.68216 1.85334,6.71649 2.47523,14.11111 2.42477,28.83224 -0.0631,18.40682 -0.37461,20.67021 -4.4304,32.18922 -6.14056,17.44006 -12.07119,26.75765 -25.98211,40.82038 -10.55704,10.67227 -13.98565,13.14141 -26.87005,19.35069 -17.04003,8.21199 -30.50557,11.58441 -46.2546,11.58441 -29.68412,0 -53.42063,-10.51139 -75.40023,-33.38992 -13.29462,-13.83837 -20.50667,-24.53496 -42.41896,-62.91399 -30.97817,-54.25778 -41.43728,-67.26027 -62.33781,-77.4967 -19.93935,-9.76567 -40.77269,-10.75937 -60.82788,-2.90135 -28.85643,11.30653 -49.16233,40.50079 -49.24211,70.79647 -0.0329,12.49982 2.34084,22.26013 8.42481,34.64094 10.73642,21.84845 32.84601,38.0711 56.96167,41.79495 29.52988,4.55989 55.38644,-7.918 77.55117,-37.42474 4.79024,-6.37699 9.11309,-11.75508 9.60637,-11.95134 0.49326,-0.19625 4.20437,5.47402 8.24689,12.60059 l 7.35005,12.95741 -3.041,4.36997 c -6.37984,9.16794 -24.8252,26.96346 -34.6695,33.44805 -20.7902,13.69482 -50.76767,18.8457 -76.70169,13.17925 z"
       id="path441" />
    <path
       style="fill:#61503e;fill-opacity:1;stroke-width:1.41421"
       d="m 253.26905,200.80339 c -26.18732,-25.46835 -47.30462,-46.61477 -46.92735,-46.99204 0.37728,-0.37728 21.46596,11.83921 46.86375,27.14774 25.39778,15.30854 46.94368,27.5398 47.87978,27.18058 0.9361,-0.35921 21.92713,-12.86686 46.64675,-27.79478 24.7196,-14.92791 45.18593,-26.90048 45.48071,-26.6057 0.29477,0.29478 -20.35896,21.42368 -45.8972,46.95312 l -46.43315,46.41715 z"
       id="path1537" />
    <path
       style="fill:#61503e;fill-opacity:1;stroke-width:1.41421"
       d="m 287.43891,439.84441 c -6.417,-7.95291 -11.66726,-14.89831 -11.66726,-15.43423 0,-1.50192 12.71856,-14.75027 18.73493,-19.51532 l 5.37137,-4.25421 11.98848,10.88397 c 6.59366,5.98619 11.98848,11.42306 11.98848,12.08195 0,1.20251 -22.11563,29.20734 -23.8328,30.17926 -0.50377,0.28513 -6.16621,-5.98851 -12.5832,-13.94142 z"
       id="path1670" />
    <path
       style="fill:#61503e;fill-opacity:1;stroke-width:1.41421"
       d="m 392.87307,372.15587 c -11.5049,-3.22784 -23.47242,-12.85857 -30.14557,-24.25933 -4.16892,-7.12239 -6.87997,-21.88471 -5.71376,-31.1127 1.84438,-14.59422 13.20695,-30.10717 27.32934,-37.31187 6.90779,-3.52409 24.02464,-6.56855 29.37725,-5.22513 l 3.85765,0.96821 -3.653,3.81383 c -16.55614,17.28505 -5.61981,45.53313 17.62829,45.53313 6.96727,0 13.6448,-2.80858 18.05961,-7.59591 1.88567,-2.04479 4.02987,-3.7178 4.76488,-3.7178 0.78467,0 1.09605,5.40051 0.75423,13.08148 -0.49401,11.10087 -1.20041,14.21382 -4.66564,20.5604 -5.10124,9.34293 -14.30348,17.93545 -23.83327,22.25413 -9.25472,4.19403 -24.65032,5.56739 -33.76001,3.01156 z"
       id="path1709" />
    <path
       style="fill:#61503e;fill-opacity:1;stroke-width:1.41421"
       d="m 180.00964,372.00781 c -13.95051,-4.35986 -25.18442,-13.9579 -31.60323,-27.00119 -2.95928,-6.01339 -3.44952,-9.01944 -3.44952,-21.15171 0,-11.98482 0.50672,-15.17115 3.32175,-20.88778 8.92351,-18.12138 32.36262,-31.39125 50.61341,-28.65437 l 6.32088,0.94787 -4.94964,5.47866 c -19.5474,21.63664 3.16427,53.2777 29.54641,41.16297 3.11127,-1.4287 6.8556,-3.9453 8.32074,-5.59245 3.67021,-4.12616 5.11429,-2.65502 5.11429,5.21011 0,25.13149 -17.18121,46.6059 -40.88499,51.10123 -9.7176,1.84291 -14.95018,1.69931 -22.3501,-0.61334 z"
       id="path1748" />
  </g>
  <text
     xml:space="preserve"
     style="font-style:normal;font-variant:normal;font-weight:normal;font-stretch:normal;font-size:33.8667px;line-height:1.25;font-family:'Garden Sans';-inkscape-font-specification:'Garden Sans';fill:#000000;fill-opacity:1;stroke:none;stroke-width:0.846667"
     x="869.57062"
     y="358.60086"
     id="text16093"><tspan
       sodipodi:role="line"
       id="tspan16091"
       style="font-style:normal;font-variant:normal;font-weight:normal;font-stretch:normal;font-family:'Garden Sans';-inkscape-font-specification:'Garden Sans';stroke-width:0.846667"
       x="869.57062"
       y="358.60086"></tspan></text>
  <g
     id="g39723"
     transform="translate(0,-4.8119009)">
    <g
       id="g53241"
       transform="translate(0,0.26604448)">
      <text
         xml:space="preserve"
         style="font-style:normal;font-variant:normal;font-weight:normal;font-stretch:normal;font-size:84.6667px;line-height:1.25;font-family:OMEGLE;-inkscape-font-specification:'OMEGLE, Normal';font-variant-ligatures:normal;font-variant-caps:normal;font-variant-numeric:normal;font-variant-east-asian:normal;fill:#23445a;fill-opacity:1;stroke:none;stroke-width:1.23601"
         x="441.98575"
         y="115.80789"
         id="text28028"><tspan
           id="tspan28026"
           x="441.98575"
           y="115.80789"
           style="font-size:84.6667px;fill:#23445a;fill-opacity:1;stroke-width:1.23601">ChouetteConcept</tspan></text>
      <text
         xml:space="preserve"
         style="font-style:normal;font-variant:normal;font-weight:normal;font-stretch:normal;font-size:90.3111px;line-height:1.25;font-family:'Garden Sans';-inkscape-font-specification:'Garden Sans';fill:#000000;fill-opacity:1;stroke:none;stroke-width:2.63246"
         x="539.034"
         y="256.74243"
         id="text20401"><tspan
           sodipodi:role="line"
           id="tspan20399"
           style="font-style:normal;font-variant:normal;font-weight:normal;font-stretch:normal;font-size:90.3111px;font-family:'Garden Sans';-inkscape-font-specification:'Garden Sans';fill:#23445a;fill-opacity:1;stroke-width:2.63246"
           x="539.034"
           y="256.74243"
           dy="0">Veille avec vous !</tspan></text>
    </g>
  </g>
</svg>
