<?xml version="1.0" encoding="UTF-8" standalone="no"?>
<!-- Created with Inkscape (http://www.inkscape.org/) -->

<svg
   version="1.1"
   id="svg157641"
   xml:space="preserve"
   width="793.70135"
   height="1122.52"
   viewBox="0 0 793.70135 1122.52"
   sodipodi:docname="charte-graphique-page-4.svg"
   inkscape:version="1.1.1 (3bf5ae0d25, 2021-09-20, custom)"
   xmlns:inkscape="http://www.inkscape.org/namespaces/inkscape"
   xmlns:sodipodi="http://sodipodi.sourceforge.net/DTD/sodipodi-0.dtd"
   xmlns="http://www.w3.org/2000/svg"
   xmlns:svg="http://www.w3.org/2000/svg"><defs
     id="defs157645"><clipPath
       clipPathUnits="userSpaceOnUse"
       id="clipPath157665"><path
         d="M 0,841.89 H 595.276 V 0 H 0 Z"
         id="path157663" /></clipPath></defs><sodipodi:namedview
     id="namedview157643"
     pagecolor="#ffffff"
     bordercolor="#666666"
     borderopacity="1.0"
     inkscape:pageshadow="2"
     inkscape:pageopacity="0.0"
     inkscape:pagecheckerboard="0"
     showgrid="false"
     inkscape:zoom="1.1224744"
     inkscape:cx="425.8449"
     inkscape:cy="897.57058"
     inkscape:window-width="1540"
     inkscape:window-height="863"
     inkscape:window-x="56"
     inkscape:window-y="23"
     inkscape:window-maximized="0"
     inkscape:current-layer="g157647" /><g
     id="g157647"
     inkscape:groupmode="layer"
     inkscape:label="charte-graphique-well-office"
     transform="matrix(1.3333333,0,0,-1.3333333,0,1122.52)"
     style="display:inline"><text
       transform="matrix(1,0,0,-1,36,39.5906)"
       style="font-variant:normal;font-weight:normal;font-stretch:normal;font-size:12px;font-family:Quicksand;-inkscape-font-specification:Quicksand-Regular;writing-mode:lr-tb;fill:#000000;fill-opacity:1;fill-rule:nonzero;stroke:none"
       id="text157651"><tspan
         x="0"
         y="0"
         id="tspan157649">4</tspan></text><text
       transform="matrix(1,0,0,-1,172.5583,17.9291)"
       style="font-variant:normal;font-weight:300;font-stretch:normal;font-size:9px;font-family:'Quicksand Light';-inkscape-font-specification:Quicksand-Light;writing-mode:lr-tb;fill:#668683;fill-opacity:1;fill-rule:nonzero;stroke:none"
       id="text157655"><tspan
         x="0 5.9310002 10.899 16.254 18.198 20.052 24.3081 29.663099 32.507099 34.361099 39.662102 44.810101 47.240101 52.5951 57.9501 61.2621 63.692101 68.642097 73.7901 79.091103 85.805099 90.737099 96.092102 98.522102 102.0141 104.4441 110.8791 115.1343 120.4893 125.8443 130.77631 133.2063 138.04829 142.2603 146.8773 148.77631 153.84331 158.02831 159.88229 162.8703 165.30029 168.41341 173.3454 177.5304 182.4624 186.2244 190.8414 195.77341 198.2034 203.5584 205.9884 214.6185 219.55051 221.49451 223.43851 225.8685 232.7805 240.6105 245.22749 250.1595"
         y="0"
         sodipodi:role="line"
         id="tspan157653">Réalisation par Snoweb - Usage exclusif réservé à Well Ofce </tspan></text><g
       id="g157657"><g
         id="g157659"><g
           id="g157661"
           clip-path="url(#clipPath157665)"><g
             id="g157667"
             transform="translate(277.6141,67.5027)"><path
               d="M 0,0 C 0.04,0.027 0.08,0.033 0.123,0.018 0.166,0.002 0.196,-0.027 0.215,-0.071 0.23,-0.104 0.231,-0.136 0.218,-0.168 0.206,-0.199 0.183,-0.226 0.152,-0.246 0.099,-0.282 0.05,-0.323 0.005,-0.369 -0.04,-0.416 -0.08,-0.47 -0.113,-0.531 -0.167,-0.629 -0.199,-0.725 -0.21,-0.82 c -0.011,-0.095 -0.002,-0.187 0.026,-0.276 0.029,-0.089 0.075,-0.17 0.139,-0.244 0.064,-0.073 0.144,-0.137 0.242,-0.19 0.108,-0.059 0.212,-0.095 0.313,-0.108 0.101,-0.013 0.195,-0.006 0.284,0.02 0.088,0.026 0.168,0.07 0.239,0.133 0.07,0.062 0.131,0.138 0.18,0.229 0.032,0.058 0.056,0.119 0.073,0.182 0.016,0.063 0.025,0.127 0.025,0.191 0.001,0.04 0.012,0.073 0.033,0.101 0.02,0.027 0.049,0.043 0.085,0.048 0.051,0.01 0.093,0.001 0.126,-0.027 0.033,-0.028 0.049,-0.065 0.048,-0.111 0,-0.056 -0.005,-0.114 -0.016,-0.175 C 1.576,-1.108 1.561,-1.167 1.543,-1.226 1.524,-1.285 1.5,-1.341 1.47,-1.396 1.402,-1.519 1.318,-1.624 1.218,-1.711 1.117,-1.798 1.003,-1.863 0.878,-1.906 0.753,-1.948 0.62,-1.963 0.478,-1.949 c -0.141,0.014 -0.285,0.061 -0.432,0.142 -0.132,0.071 -0.241,0.161 -0.329,0.267 -0.087,0.107 -0.149,0.224 -0.185,0.351 -0.036,0.127 -0.046,0.259 -0.03,0.395 0.015,0.136 0.059,0.27 0.13,0.402 0.045,0.082 0.099,0.156 0.162,0.223 C -0.143,-0.103 -0.074,-0.046 0,0"
               style="fill:#304a48;fill-opacity:1;fill-rule:nonzero;stroke:none"
               id="path157669" /></g><g
             id="g157671"
             transform="translate(280.0568,69.4796)"><path
               d="M 0,0 C 0.12,-0.087 0.218,-0.187 0.293,-0.301 0.368,-0.415 0.419,-0.536 0.444,-0.664 0.47,-0.792 0.469,-0.92 0.442,-1.05 0.415,-1.179 0.359,-1.303 0.275,-1.42 0.192,-1.535 0.093,-1.626 -0.021,-1.693 -0.135,-1.76 -0.257,-1.801 -0.386,-1.817 c -0.13,-0.016 -0.26,-0.007 -0.392,0.029 -0.131,0.036 -0.257,0.097 -0.377,0.184 -0.12,0.087 -0.218,0.186 -0.294,0.3 -0.076,0.113 -0.126,0.234 -0.152,0.362 -0.026,0.127 -0.025,0.256 0.002,0.385 0.027,0.13 0.082,0.252 0.166,0.368 0.084,0.117 0.183,0.209 0.297,0.275 0.115,0.067 0.236,0.109 0.365,0.125 0.13,0.016 0.261,0.006 0.392,-0.029 C -0.246,0.147 -0.12,0.086 0,0 m -0.184,-0.256 c -0.118,0.084 -0.239,0.136 -0.367,0.157 -0.127,0.02 -0.246,0.009 -0.36,-0.035 -0.112,-0.043 -0.208,-0.119 -0.285,-0.226 -0.076,-0.106 -0.118,-0.22 -0.123,-0.341 -0.005,-0.121 0.022,-0.237 0.081,-0.35 0.06,-0.112 0.149,-0.211 0.268,-0.297 0.117,-0.084 0.238,-0.137 0.365,-0.158 0.126,-0.022 0.246,-0.01 0.359,0.033 0.113,0.043 0.207,0.118 0.283,0.224 0.078,0.108 0.12,0.222 0.125,0.343 0.006,0.121 -0.022,0.238 -0.081,0.352 -0.06,0.114 -0.148,0.213 -0.265,0.298"
               style="fill:#304a48;fill-opacity:1;fill-rule:nonzero;stroke:none"
               id="path157673" /></g><g
             id="g157675"
             transform="translate(281.5713,72.6498)"><path
               d="m 0,0 c 0.027,0.028 0.062,0.044 0.106,0.048 0.043,0.004 0.082,-0.01 0.117,-0.044 0.01,-0.01 0.02,-0.023 0.03,-0.041 L 1.097,-1.688 C 1.111,-1.715 1.115,-1.744 1.108,-1.773 1.102,-1.802 1.09,-1.827 1.072,-1.848 1.053,-1.867 1.029,-1.882 0.999,-1.89 0.968,-1.899 0.937,-1.897 0.906,-1.885 l -1.099,0.42 0.027,0.011 0.451,-1.072 C 0.297,-2.559 0.299,-2.59 0.292,-2.62 0.285,-2.65 0.271,-2.676 0.251,-2.697 0.232,-2.713 0.208,-2.726 0.179,-2.733 0.15,-2.74 0.122,-2.737 0.094,-2.724 l -1.677,0.789 c -0.018,0.01 -0.032,0.019 -0.042,0.029 -0.035,0.034 -0.051,0.073 -0.047,0.118 0.004,0.045 0.02,0.08 0.045,0.107 0.022,0.022 0.048,0.037 0.078,0.045 0.03,0.007 0.06,0.003 0.089,-0.011 l 1.436,-0.686 -0.036,-0.038 -0.473,1.076 c -0.012,0.03 -0.015,0.06 -0.011,0.09 0.004,0.03 0.018,0.055 0.041,0.076 0.02,0.024 0.045,0.038 0.075,0.044 0.03,0.005 0.059,0.002 0.088,-0.01 L 0.711,-1.527 0.698,-1.575 -0.031,-0.17 c -0.015,0.029 -0.02,0.058 -0.012,0.09 C -0.036,-0.049 -0.022,-0.022 0,0"
               style="fill:#304a48;fill-opacity:1;fill-rule:nonzero;stroke:none"
               id="path157677" /></g><g
             id="g157679"
             transform="translate(284.627,73.7918)"><path
               d="M 0,0 C 0.091,-0.117 0.155,-0.241 0.195,-0.372 0.234,-0.503 0.248,-0.634 0.236,-0.763 0.224,-0.893 0.187,-1.016 0.124,-1.132 0.061,-1.249 -0.028,-1.351 -0.142,-1.439 -0.255,-1.526 -0.375,-1.585 -0.503,-1.616 -0.632,-1.648 -0.76,-1.653 -0.889,-1.631 c -0.128,0.021 -0.251,0.068 -0.367,0.14 -0.115,0.072 -0.219,0.166 -0.309,0.284 -0.09,0.117 -0.156,0.241 -0.196,0.371 -0.04,0.13 -0.054,0.26 -0.042,0.39 0.011,0.13 0.049,0.253 0.112,0.369 0.063,0.116 0.151,0.218 0.263,0.305 0.115,0.088 0.236,0.148 0.364,0.179 0.129,0.031 0.257,0.036 0.386,0.015 C -0.55,0.401 -0.427,0.354 -0.31,0.283 -0.194,0.212 -0.091,0.117 0,0 m -0.25,-0.193 c -0.088,0.114 -0.19,0.199 -0.306,0.255 -0.115,0.056 -0.234,0.08 -0.354,0.07 -0.121,-0.009 -0.234,-0.055 -0.339,-0.135 -0.104,-0.08 -0.175,-0.178 -0.215,-0.292 -0.04,-0.114 -0.047,-0.234 -0.022,-0.359 0.025,-0.125 0.082,-0.245 0.171,-0.361 0.088,-0.114 0.19,-0.199 0.305,-0.256 0.115,-0.056 0.233,-0.08 0.353,-0.07 0.121,0.009 0.233,0.054 0.337,0.134 0.105,0.081 0.177,0.178 0.217,0.293 0.039,0.114 0.047,0.234 0.022,0.36 -0.025,0.127 -0.081,0.247 -0.169,0.361"
               style="fill:#304a48;fill-opacity:1;fill-rule:nonzero;stroke:none"
               id="path157681" /></g><g
             id="g157683"
             transform="translate(286.1376,73.548)"><path
               d="m 0,0 c -0.04,-0.024 -0.083,-0.032 -0.127,-0.025 -0.045,0.006 -0.078,0.028 -0.1,0.065 l -0.884,1.508 c -0.022,0.037 -0.027,0.076 -0.016,0.115 0.011,0.039 0.034,0.069 0.069,0.09 l 0.712,0.417 c 0.091,0.053 0.187,0.079 0.288,0.079 0.102,0 0.199,-0.026 0.291,-0.077 C 0.326,2.121 0.401,2.045 0.46,1.944 0.5,1.877 0.524,1.805 0.533,1.727 0.542,1.65 0.538,1.575 0.52,1.501 0.502,1.428 0.472,1.362 0.428,1.305 L 0.372,1.337 c 0.063,0.012 0.124,0.012 0.183,0 C 0.614,1.325 0.668,1.303 0.718,1.27 0.768,1.237 0.811,1.192 0.847,1.134 0.883,1.084 0.913,1.044 0.937,1.012 0.961,0.98 0.984,0.955 1.005,0.938 1.027,0.922 1.052,0.914 1.081,0.915 1.121,0.916 1.154,0.902 1.182,0.872 1.209,0.843 1.22,0.809 1.214,0.769 1.21,0.74 1.199,0.716 1.18,0.697 1.16,0.677 1.138,0.663 1.112,0.653 1.086,0.644 1.062,0.638 1.04,0.637 1.003,0.638 0.962,0.646 0.916,0.661 0.87,0.676 0.822,0.706 0.773,0.751 0.724,0.797 0.672,0.865 0.619,0.956 0.594,0.998 0.567,1.03 0.535,1.053 0.504,1.075 0.471,1.089 0.436,1.094 0.401,1.1 0.365,1.098 0.328,1.089 0.29,1.079 0.252,1.063 0.214,1.04 L -0.321,0.727 -0.315,0.798 0.038,0.195 C 0.06,0.158 0.068,0.122 0.062,0.085 0.056,0.049 0.035,0.021 0,0 M -0.447,0.948 0.156,1.301 C 0.193,1.326 0.222,1.363 0.241,1.414 0.259,1.464 0.266,1.522 0.259,1.585 0.252,1.649 0.23,1.713 0.192,1.777 0.145,1.857 0.081,1.911 0.001,1.938 -0.079,1.964 -0.151,1.958 -0.217,1.92 l -0.59,-0.346 -0.011,0.082 0.435,-0.742 z"
               style="fill:#304a48;fill-opacity:1;fill-rule:nonzero;stroke:none"
               id="path157685" /></g><g
             id="g157687"
             transform="translate(288.3224,74.7361)"><path
               d="M 0,0 C -0.041,-0.018 -0.08,-0.02 -0.117,-0.005 -0.155,0.01 -0.182,0.037 -0.199,0.076 L -0.895,1.68 c -0.017,0.04 -0.018,0.078 -0.002,0.116 0.015,0.037 0.045,0.065 0.088,0.084 0.041,0.018 0.08,0.019 0.116,0.004 0.036,-0.015 0.063,-0.042 0.08,-0.081 L 0.083,0.198 C 0.098,0.158 0.099,0.12 0.085,0.083 0.071,0.046 0.043,0.019 0,0 M 0.365,2.399 C 0.401,2.414 0.436,2.413 0.472,2.394 0.507,2.376 0.532,2.351 0.545,2.321 0.559,2.289 0.558,2.254 0.543,2.215 L -0.137,0.616 -0.29,0.926 0.279,2.301 C 0.297,2.349 0.326,2.382 0.365,2.399 M 1.171,0.505 C 1.13,0.487 1.089,0.49 1.049,0.513 L 0.008,1.084 0.124,1.383 1.19,0.79 C 1.224,0.771 1.248,0.744 1.263,0.71 1.282,0.668 1.28,0.627 1.259,0.588 1.238,0.548 1.208,0.521 1.171,0.505"
               style="fill:#304a48;fill-opacity:1;fill-rule:nonzero;stroke:none"
               id="path157689" /></g><g
             id="g157691"
             transform="translate(290.7336,75.8318)"><path
               d="m 0,0 c 0.012,-0.041 0.007,-0.08 -0.013,-0.117 -0.02,-0.036 -0.049,-0.06 -0.088,-0.073 -0.042,-0.014 -0.081,-0.012 -0.117,0.006 -0.036,0.018 -0.06,0.048 -0.074,0.089 l -0.543,1.661 c -0.014,0.041 -0.011,0.08 0.008,0.115 0.019,0.036 0.051,0.062 0.095,0.076 0.037,0.012 0.074,0.01 0.112,-0.008 0.038,-0.017 0.063,-0.046 0.076,-0.087 z"
               style="fill:#304a48;fill-opacity:1;fill-rule:nonzero;stroke:none"
               id="path157693" /></g><g
             id="g157695"
             transform="translate(292.7911,78.3184)"><path
               d="m 0,0 c 0.038,0.009 0.072,0.002 0.101,-0.018 0.03,-0.02 0.049,-0.05 0.057,-0.087 L 0.541,-1.824 C 0.55,-1.866 0.544,-1.903 0.523,-1.937 0.501,-1.971 0.47,-1.992 0.427,-2.002 0.408,-2.006 0.387,-2.007 0.363,-2.004 0.34,-2.001 0.321,-1.994 0.307,-1.983 l -1.512,1.26 0.058,0.051 0.327,-1.47 c 0.008,-0.036 0.002,-0.07 -0.017,-0.101 -0.019,-0.031 -0.047,-0.051 -0.085,-0.059 -0.04,-0.009 -0.075,-0.003 -0.105,0.017 -0.029,0.02 -0.048,0.049 -0.056,0.085 l -0.383,1.721 c -0.01,0.044 -0.003,0.082 0.019,0.115 0.023,0.033 0.054,0.054 0.094,0.063 0.021,0.004 0.044,0.005 0.07,0.002 0.026,-0.003 0.046,-0.012 0.061,-0.027 L 0.255,-1.561 0.221,-1.61 -0.102,-0.163 C -0.11,-0.125 -0.105,-0.091 -0.086,-0.06 -0.067,-0.028 -0.038,-0.008 0,0"
               style="fill:#304a48;fill-opacity:1;fill-rule:nonzero;stroke:none"
               id="path157697" /></g><g
             id="g157699"
             transform="translate(295.312,76.5597)"><path
               d="m 0,0 c -0.148,-0.013 -0.288,0.001 -0.421,0.042 -0.133,0.042 -0.252,0.106 -0.357,0.193 -0.105,0.088 -0.19,0.192 -0.256,0.313 -0.066,0.121 -0.106,0.256 -0.12,0.403 -0.013,0.148 0.002,0.287 0.044,0.418 0.043,0.131 0.108,0.249 0.195,0.354 0.087,0.105 0.193,0.19 0.316,0.255 0.123,0.065 0.258,0.105 0.406,0.118 C -0.098,2.105 -0.005,2.103 0.086,2.09 0.178,2.077 0.261,2.053 0.337,2.019 0.363,2.008 0.383,1.991 0.397,1.97 0.411,1.949 0.419,1.928 0.421,1.906 0.424,1.866 0.414,1.829 0.391,1.796 0.368,1.764 0.337,1.746 0.298,1.742 0.284,1.741 0.27,1.742 0.255,1.744 0.24,1.747 0.226,1.75 0.214,1.755 0.157,1.777 0.097,1.793 0.034,1.802 -0.03,1.811 -0.096,1.812 -0.166,1.805 -0.306,1.792 -0.429,1.747 -0.536,1.67 -0.642,1.593 -0.722,1.494 -0.777,1.373 -0.831,1.253 -0.852,1.122 -0.839,0.98 -0.826,0.84 -0.782,0.715 -0.706,0.606 -0.631,0.497 -0.534,0.413 -0.415,0.357 -0.296,0.3 -0.167,0.278 -0.027,0.291 0.041,0.298 0.112,0.312 0.186,0.336 0.26,0.359 0.322,0.387 0.372,0.419 L 0.356,0.338 0.306,0.892 0.356,0.855 -0.026,0.82 c -0.042,-0.004 -0.079,0.006 -0.11,0.031 -0.03,0.024 -0.048,0.058 -0.052,0.101 -0.003,0.042 0.007,0.079 0.033,0.109 0.026,0.029 0.06,0.046 0.102,0.05 L 0.451,1.157 C 0.492,1.161 0.528,1.15 0.558,1.125 0.589,1.099 0.607,1.065 0.611,1.022 L 0.67,0.376 C 0.673,0.345 0.667,0.318 0.654,0.295 0.64,0.272 0.625,0.253 0.606,0.238 0.524,0.176 0.432,0.123 0.329,0.08 0.226,0.038 0.116,0.011 0,0"
               style="fill:#304a48;fill-opacity:1;fill-rule:nonzero;stroke:none"
               id="path157701" /></g><g
             id="g157703"
             transform="translate(299.8999,78.4255)"><path
               d="M 0,0 C 0.041,-0.025 0.062,-0.061 0.065,-0.106 0.068,-0.151 0.053,-0.191 0.02,-0.225 c -0.024,-0.027 -0.053,-0.041 -0.087,-0.042 -0.035,-0.001 -0.067,0.009 -0.099,0.03 -0.053,0.034 -0.11,0.063 -0.171,0.086 -0.06,0.023 -0.126,0.038 -0.195,0.044 -0.111,0.01 -0.212,0.002 -0.304,-0.026 -0.092,-0.028 -0.172,-0.072 -0.243,-0.133 -0.07,-0.061 -0.126,-0.136 -0.168,-0.224 -0.043,-0.088 -0.069,-0.188 -0.079,-0.298 -0.012,-0.122 -0.003,-0.232 0.025,-0.33 0.028,-0.098 0.072,-0.182 0.131,-0.253 0.059,-0.071 0.131,-0.126 0.217,-0.167 0.085,-0.04 0.179,-0.065 0.282,-0.074 0.066,-0.006 0.131,-0.004 0.196,0.005 0.064,0.01 0.126,0.028 0.185,0.054 0.037,0.014 0.072,0.017 0.106,0.009 0.033,-0.008 0.059,-0.027 0.078,-0.058 0.029,-0.044 0.037,-0.087 0.025,-0.127 -0.013,-0.041 -0.041,-0.071 -0.083,-0.088 -0.051,-0.023 -0.107,-0.041 -0.167,-0.055 -0.06,-0.014 -0.121,-0.024 -0.182,-0.031 -0.061,-0.006 -0.123,-0.006 -0.185,0 -0.14,0.013 -0.269,0.048 -0.389,0.106 -0.12,0.058 -0.224,0.136 -0.313,0.234 -0.089,0.099 -0.155,0.215 -0.199,0.35 -0.043,0.136 -0.057,0.287 -0.042,0.454 0.014,0.149 0.053,0.285 0.116,0.407 0.063,0.123 0.145,0.226 0.248,0.309 0.103,0.084 0.22,0.146 0.351,0.185 0.131,0.04 0.27,0.053 0.42,0.039 C -0.413,0.173 -0.323,0.153 -0.237,0.122 -0.151,0.09 -0.072,0.05 0,0"
               style="fill:#304a48;fill-opacity:1;fill-rule:nonzero;stroke:none"
               id="path157705" /></g><g
             id="g157707"
             transform="translate(301.7074,77.8405)"><path
               d="m 0,0 -0.97,-1.409 c -0.018,-0.028 -0.04,-0.048 -0.067,-0.061 -0.026,-0.012 -0.054,-0.015 -0.082,-0.009 -0.042,0.009 -0.071,0.027 -0.087,0.056 -0.016,0.028 -0.021,0.06 -0.016,0.097 0.003,0.013 0.009,0.028 0.019,0.044 l 1.097,1.603 c 0.02,0.03 0.045,0.05 0.075,0.062 0.029,0.012 0.059,0.013 0.089,0.005 C 0.086,0.382 0.111,0.368 0.133,0.345 0.154,0.323 0.167,0.295 0.172,0.262 L 0.525,-1.62 C 0.528,-1.641 0.528,-1.661 0.524,-1.68 0.515,-1.722 0.494,-1.753 0.461,-1.772 0.428,-1.792 0.394,-1.799 0.36,-1.791 c -0.029,0.006 -0.053,0.02 -0.073,0.043 -0.02,0.024 -0.033,0.051 -0.038,0.082 l -0.325,1.673 z m -0.77,-1.027 0.187,0.247 0.809,-0.17 -0.009,-0.285 z"
               style="fill:#304a48;fill-opacity:1;fill-rule:nonzero;stroke:none"
               id="path157709" /></g><g
             id="g157711"
             transform="translate(303.1518,75.7526)"><path
               d="M 0,0 C -0.044,0.015 -0.079,0.042 -0.103,0.08 -0.127,0.118 -0.132,0.157 -0.118,0.198 L 0.445,1.853 C 0.459,1.894 0.485,1.922 0.521,1.94 0.558,1.957 0.596,1.959 0.635,1.946 L 1.415,1.68 C 1.515,1.646 1.598,1.591 1.664,1.514 1.731,1.436 1.775,1.346 1.796,1.243 1.818,1.14 1.81,1.033 1.772,0.922 1.747,0.849 1.708,0.783 1.656,0.726 1.603,0.669 1.543,0.622 1.476,0.588 1.408,0.553 1.339,0.534 1.267,0.529 L 1.255,0.592 C 1.305,0.552 1.345,0.506 1.375,0.454 1.404,0.402 1.423,0.346 1.43,0.287 1.438,0.227 1.432,0.165 1.411,0.1 1.398,0.041 1.387,-0.008 1.378,-0.048 1.37,-0.087 1.367,-0.12 1.367,-0.147 1.369,-0.175 1.379,-0.199 1.398,-0.22 1.425,-0.25 1.437,-0.284 1.432,-0.324 1.428,-0.364 1.409,-0.395 1.375,-0.416 1.351,-0.432 1.325,-0.439 1.298,-0.437 c -0.027,0.002 -0.053,0.009 -0.077,0.023 -0.024,0.013 -0.044,0.028 -0.059,0.043 -0.024,0.029 -0.045,0.065 -0.063,0.11 -0.019,0.044 -0.027,0.1 -0.025,0.167 0.002,0.067 0.02,0.151 0.054,0.25 C 1.144,0.203 1.15,0.245 1.146,0.283 1.143,0.321 1.132,0.355 1.113,0.385 1.095,0.415 1.07,0.441 1.038,0.464 1.006,0.486 0.969,0.504 0.927,0.518 L 0.34,0.718 0.398,0.76 0.173,0.099 C 0.159,0.058 0.136,0.028 0.105,0.009 0.074,-0.01 0.039,-0.013 0,0 M 0.425,0.958 1.086,0.733 C 1.13,0.72 1.176,0.723 1.227,0.742 1.278,0.761 1.325,0.794 1.369,0.84 1.413,0.887 1.446,0.946 1.47,1.016 1.5,1.105 1.5,1.188 1.467,1.266 1.435,1.343 1.383,1.395 1.311,1.419 L 0.663,1.64 0.718,1.701 0.441,0.888 Z"
               style="fill:#304a48;fill-opacity:1;fill-rule:nonzero;stroke:none"
               id="path157713" /></g><g
             id="g157715"
             transform="translate(306.9927,74.0177)"><path
               d="M 0,0 C 0.031,-0.015 0.053,-0.042 0.067,-0.08 0.08,-0.117 0.078,-0.153 0.062,-0.186 0.044,-0.223 0.009,-0.25 -0.041,-0.266 c -0.05,-0.017 -0.109,-0.025 -0.175,-0.025 -0.066,0 -0.132,0.006 -0.198,0.02 -0.066,0.014 -0.124,0.033 -0.173,0.057 -0.106,0.052 -0.188,0.105 -0.244,0.159 -0.057,0.053 -0.101,0.104 -0.134,0.153 -0.032,0.048 -0.065,0.094 -0.098,0.136 -0.032,0.042 -0.078,0.077 -0.138,0.106 -0.033,0.017 -0.063,0.025 -0.089,0.024 -0.026,0 -0.053,0 -0.082,0 -0.028,-0.001 -0.06,0.008 -0.095,0.025 -0.037,0.018 -0.06,0.047 -0.071,0.087 -0.011,0.04 -0.008,0.077 0.008,0.11 0.028,0.056 0.071,0.081 0.132,0.076 L -0.794,0.6 -0.576,0.441 -1.141,0.503 -0.993,0.519 c 0.065,-0.032 0.117,-0.07 0.158,-0.113 0.04,-0.044 0.078,-0.09 0.111,-0.138 0.034,-0.048 0.071,-0.094 0.111,-0.137 0.039,-0.043 0.092,-0.081 0.156,-0.113 0.054,-0.026 0.105,-0.04 0.15,-0.04 0.045,-0.001 0.084,0.002 0.117,0.007 0.04,0.007 0.076,0.014 0.107,0.022 C -0.052,0.014 -0.025,0.012 0,0 M 0.45,1.04 C 0.385,0.907 0.302,0.793 0.202,0.7 0.102,0.607 -0.008,0.537 -0.13,0.49 -0.252,0.443 -0.379,0.422 -0.511,0.427 -0.643,0.432 -0.773,0.466 -0.903,0.53 -1.031,0.592 -1.137,0.674 -1.222,0.776 -1.307,0.877 -1.369,0.99 -1.406,1.115 c -0.038,0.124 -0.05,0.255 -0.037,0.39 0.013,0.136 0.052,0.27 0.118,0.403 0.065,0.133 0.147,0.247 0.246,0.341 0.099,0.093 0.209,0.163 0.331,0.21 0.121,0.047 0.248,0.068 0.381,0.063 C -0.235,2.517 -0.106,2.483 0.022,2.421 0.152,2.357 0.259,2.275 0.344,2.174 0.429,2.072 0.49,1.959 0.528,1.835 0.566,1.71 0.578,1.579 0.566,1.443 0.554,1.307 0.515,1.173 0.45,1.04 M 0.166,1.178 C 0.23,1.308 0.261,1.437 0.26,1.566 0.259,1.694 0.227,1.811 0.165,1.915 0.103,2.019 0.013,2.1 -0.106,2.158 -0.224,2.216 -0.342,2.237 -0.463,2.222 -0.582,2.207 -0.693,2.161 -0.794,2.083 -0.895,2.005 -0.978,1.901 -1.042,1.77 -1.105,1.64 -1.137,1.511 -1.136,1.383 c 0,-0.128 0.031,-0.244 0.093,-0.348 0.062,-0.104 0.151,-0.185 0.268,-0.243 0.119,-0.058 0.239,-0.079 0.359,-0.064 0.12,0.014 0.232,0.061 0.334,0.139 0.102,0.078 0.185,0.182 0.248,0.311"
               style="fill:#304a48;fill-opacity:1;fill-rule:nonzero;stroke:none"
               id="path157717" /></g><g
             id="g157719"
             transform="translate(310.0982,74.5945)"><path
               d="M 0,0 C 0.036,-0.024 0.057,-0.054 0.062,-0.092 0.068,-0.13 0.058,-0.166 0.035,-0.202 l -0.612,-0.924 c -0.086,-0.13 -0.192,-0.227 -0.316,-0.292 -0.125,-0.065 -0.256,-0.093 -0.393,-0.085 -0.137,0.008 -0.271,0.055 -0.401,0.141 -0.129,0.085 -0.224,0.189 -0.285,0.313 -0.062,0.124 -0.088,0.256 -0.078,0.397 0.01,0.14 0.058,0.276 0.144,0.406 l 0.612,0.924 C -1.27,0.713 -1.238,0.735 -1.198,0.743 -1.158,0.75 -1.119,0.741 -1.08,0.715 -1.049,0.694 -1.029,0.664 -1.019,0.624 -1.01,0.584 -1.016,0.546 -1.04,0.51 L -1.652,-0.414 C -1.709,-0.5 -1.74,-0.588 -1.744,-0.678 c -0.004,-0.089 0.013,-0.173 0.052,-0.252 0.04,-0.078 0.095,-0.141 0.166,-0.188 0.078,-0.052 0.162,-0.081 0.251,-0.088 0.089,-0.006 0.175,0.01 0.258,0.048 0.082,0.037 0.151,0.099 0.209,0.185 l 0.611,0.924 c 0.024,0.036 0.054,0.059 0.09,0.069 C -0.071,0.03 -0.035,0.024 0,0"
               style="fill:#304a48;fill-opacity:1;fill-rule:nonzero;stroke:none"
               id="path157721" /></g><g
             id="g157723"
             transform="translate(311.3114,73.6677)"><path
               d="M 0,0 0.774,-0.652 C 0.805,-0.678 0.823,-0.711 0.827,-0.75 0.831,-0.789 0.819,-0.825 0.793,-0.856 0.767,-0.887 0.735,-0.903 0.697,-0.905 0.659,-0.906 0.624,-0.893 0.593,-0.867 l -0.675,0.569 0.054,0.02 -0.422,-0.501 -0.002,0.039 0.573,-0.482 C 0.152,-1.249 0.17,-1.281 0.174,-1.32 0.178,-1.36 0.166,-1.395 0.138,-1.428 0.112,-1.459 0.08,-1.476 0.042,-1.477 0.004,-1.478 -0.031,-1.465 -0.062,-1.439 l -0.568,0.479 0.033,0.006 -0.435,-0.516 -10e-4,0.031 0.668,-0.563 c 0.032,-0.027 0.049,-0.06 0.053,-0.1 0.003,-0.04 -0.007,-0.074 -0.031,-0.102 -0.027,-0.031 -0.059,-0.048 -0.098,-0.05 -0.038,-0.002 -0.073,0.011 -0.104,0.037 l -0.774,0.652 c -0.031,0.027 -0.049,0.06 -0.053,0.1 -0.004,0.041 0.008,0.077 0.035,0.11 l 1.127,1.337 c 0.028,0.033 0.062,0.051 0.102,0.054 C -0.067,0.038 -0.031,0.026 0,0"
               style="fill:#304a48;fill-opacity:1;fill-rule:nonzero;stroke:none"
               id="path157725" /></g><g
             id="g157727"
             transform="translate(311.6381,70.6235)"><path
               d="m 0,0 c -0.033,0.034 -0.048,0.071 -0.047,0.111 0,0.04 0.016,0.074 0.047,0.104 l 1.262,1.21 C 1.293,1.455 1.329,1.469 1.37,1.467 1.41,1.466 1.445,1.45 1.473,1.421 L 2.157,0.708 C 2.187,0.677 2.202,0.641 2.202,0.602 2.201,0.563 2.186,0.529 2.157,0.501 2.13,0.475 2.097,0.463 2.058,0.465 2.019,0.466 1.984,0.482 1.955,0.513 L 1.364,1.13 1.399,1.135 0.928,0.684 0.941,0.721 1.44,0.201 C 1.469,0.17 1.484,0.135 1.484,0.096 1.484,0.057 1.469,0.023 1.439,-0.005 1.412,-0.031 1.38,-0.043 1.34,-0.042 1.301,-0.04 1.267,-0.024 1.237,0.007 L 0.735,0.53 H 0.768 L 0.211,-0.005 C 0.18,-0.034 0.144,-0.048 0.103,-0.047 0.063,-0.045 0.028,-0.03 0,0"
               style="fill:#304a48;fill-opacity:1;fill-rule:nonzero;stroke:none"
               id="path157729" /></g><g
             id="g157731"
             transform="translate(314.9251,68.2924)"><path
               d="m 0,0 c -0.118,-0.089 -0.243,-0.153 -0.374,-0.191 -0.131,-0.038 -0.262,-0.051 -0.391,-0.038 -0.13,0.013 -0.253,0.052 -0.368,0.116 -0.116,0.064 -0.217,0.154 -0.304,0.269 -0.086,0.113 -0.144,0.235 -0.174,0.363 -0.03,0.129 -0.034,0.257 -0.011,0.386 0.022,0.128 0.07,0.25 0.143,0.365 0.073,0.115 0.169,0.217 0.287,0.307 0.118,0.089 0.243,0.153 0.373,0.192 0.131,0.039 0.261,0.052 0.391,0.039 C -0.299,1.795 -0.176,1.756 -0.06,1.692 0.055,1.628 0.156,1.539 0.242,1.425 0.329,1.31 0.388,1.189 0.418,1.06 0.448,0.931 0.452,0.803 0.429,0.674 0.406,0.546 0.359,0.424 0.286,0.308 0.214,0.192 0.118,0.089 0,0 M -0.19,0.252 C -0.075,0.339 0.011,0.44 0.068,0.555 0.125,0.67 0.149,0.788 0.141,0.909 0.133,1.03 0.089,1.143 0.009,1.249 -0.07,1.353 -0.166,1.426 -0.28,1.467 -0.394,1.508 -0.514,1.516 -0.639,1.493 -0.764,1.469 -0.885,1.413 -1.001,1.325 -1.116,1.238 -1.203,1.137 -1.26,1.023 -1.318,0.908 -1.343,0.791 -1.335,0.67 c 0.008,-0.121 0.052,-0.234 0.131,-0.338 0.08,-0.106 0.177,-0.179 0.291,-0.22 0.114,-0.041 0.234,-0.049 0.361,-0.026 0.126,0.024 0.246,0.079 0.362,0.166"
               style="fill:#304a48;fill-opacity:1;fill-rule:nonzero;stroke:none"
               id="path157733" /></g><g
             id="g157735"
             transform="translate(317.0851,66.6828)"><path
               d="M 0,0 C 0.021,-0.037 0.026,-0.074 0.014,-0.11 0.002,-0.146 -0.023,-0.175 -0.06,-0.196 l -0.963,-0.548 c -0.135,-0.078 -0.273,-0.117 -0.414,-0.119 -0.14,-0.001 -0.27,0.033 -0.389,0.102 -0.119,0.069 -0.217,0.171 -0.294,0.306 -0.077,0.134 -0.114,0.27 -0.113,0.409 0,0.138 0.037,0.268 0.109,0.389 0.073,0.121 0.177,0.22 0.312,0.297 l 0.963,0.549 c 0.037,0.021 0.075,0.026 0.114,0.015 0.04,-0.012 0.07,-0.038 0.094,-0.079 0.018,-0.032 0.022,-0.068 0.013,-0.108 -0.01,-0.04 -0.033,-0.071 -0.07,-0.092 L -1.661,0.376 C -1.751,0.325 -1.818,0.26 -1.862,0.182 -1.907,0.104 -1.929,0.021 -1.929,-0.066 c -10e-4,-0.088 0.02,-0.169 0.063,-0.244 0.046,-0.081 0.107,-0.145 0.184,-0.191 0.077,-0.046 0.16,-0.071 0.251,-0.074 0.091,-0.003 0.181,0.021 0.27,0.072 l 0.964,0.549 c 0.037,0.021 0.073,0.028 0.11,0.021 C -0.05,0.06 -0.021,0.037 0,0"
               style="fill:#304a48;fill-opacity:1;fill-rule:nonzero;stroke:none"
               id="path157737" /></g><g
             id="g157739"
             transform="translate(318.0694,62.8188)"><path
               d="m 0,0 c -0.426,0 -0.773,-0.347 -0.773,-0.774 0,-0.426 0.347,-0.773 0.773,-0.773 0.426,0 0.774,0.347 0.774,0.773 C 0.774,-0.347 0.426,0 0,0"
               style="fill:#668683;fill-opacity:1;fill-rule:nonzero;stroke:none"
               id="path157741" /></g><g
             id="g157743"
             transform="translate(277.206,62.8188)"><path
               d="m 0,0 c -0.427,0 -0.773,-0.347 -0.773,-0.774 0,-0.426 0.346,-0.773 0.773,-0.773 0.426,0 0.773,0.347 0.773,0.773 C 0.773,-0.347 0.426,0 0,0"
               style="fill:#668683;fill-opacity:1;fill-rule:nonzero;stroke:none"
               id="path157745" /></g><g
             id="g157747"
             transform="translate(286.9975,35.1573)"><path
               d="m 0,0 c 0,-0.45 -0.073,-0.867 -0.219,-1.25 -0.147,-0.383 -0.353,-0.718 -0.618,-1.004 -0.267,-0.287 -0.58,-0.509 -0.939,-0.667 -0.36,-0.158 -0.756,-0.237 -1.189,-0.237 -0.427,0 -0.82,0.079 -1.179,0.237 -0.36,0.158 -0.673,0.38 -0.939,0.667 -0.266,0.286 -0.471,0.621 -0.614,1.004 -0.144,0.383 -0.215,0.8 -0.215,1.25 0,0.45 0.071,0.867 0.215,1.25 0.143,0.383 0.348,0.718 0.614,1.005 0.266,0.286 0.579,0.508 0.939,0.666 0.359,0.158 0.752,0.237 1.179,0.237 0.433,0 0.829,-0.079 1.189,-0.237 0.359,-0.158 0.672,-0.38 0.939,-0.666 C -0.572,1.968 -0.366,1.633 -0.219,1.25 -0.073,0.867 0,0.45 0,0 m -0.763,0 c 0,0.474 -0.094,0.896 -0.281,1.268 C -1.231,1.639 -1.49,1.93 -1.82,2.141 -2.151,2.351 -2.532,2.456 -2.965,2.456 -3.392,2.456 -3.77,2.351 -4.101,2.141 -4.431,1.93 -4.69,1.641 -4.877,1.272 -5.064,0.904 -5.158,0.48 -5.158,0 c 0,-0.474 0.094,-0.896 0.281,-1.267 0.187,-0.372 0.446,-0.662 0.776,-0.873 0.331,-0.21 0.709,-0.316 1.136,-0.316 0.433,0 0.814,0.106 1.145,0.316 0.33,0.211 0.589,0.501 0.776,0.873 0.187,0.371 0.281,0.793 0.281,1.267"
               style="fill:#304a48;fill-opacity:1;fill-rule:nonzero;stroke:none"
               id="path157749" /></g><g
             id="g157751"
             transform="translate(289.3923,32.0873)"><path
               d="m 0,0 c -0.111,0 -0.2,0.035 -0.268,0.105 -0.067,0.07 -0.1,0.155 -0.1,0.255 v 5.421 c 0,0.099 0.035,0.184 0.105,0.254 0.07,0.07 0.155,0.105 0.254,0.105 H 3.07 c 0.1,0 0.184,-0.033 0.255,-0.1 C 3.395,5.972 3.43,5.889 3.43,5.789 3.43,5.702 3.395,5.624 3.325,5.557 3.254,5.49 3.17,5.456 3.07,5.456 H 0.307 L 0.36,5.527 V 3.386 L 0.316,3.482 h 2.36 c 0.099,0 0.183,-0.033 0.254,-0.1 C 3,3.314 3.035,3.231 3.035,3.132 3.035,3.038 3,2.959 2.93,2.895 2.859,2.83 2.775,2.798 2.676,2.798 H 0.298 L 0.36,2.868 V 0.36 C 0.36,0.26 0.325,0.175 0.255,0.105 0.184,0.035 0.099,0 0,0"
               style="fill:#304a48;fill-opacity:1;fill-rule:nonzero;stroke:none"
               id="path157753" /></g><g
             id="g157755"
             transform="translate(295.2166,32.0873)"><path
               d="m 0,0 c -0.111,0 -0.2,0.035 -0.268,0.105 -0.067,0.07 -0.1,0.155 -0.1,0.255 v 5.421 c 0,0.099 0.035,0.184 0.105,0.254 0.07,0.07 0.155,0.105 0.254,0.105 H 3.07 c 0.1,0 0.184,-0.033 0.255,-0.1 C 3.395,5.972 3.43,5.889 3.43,5.789 3.43,5.702 3.395,5.624 3.325,5.557 3.254,5.49 3.17,5.456 3.07,5.456 H 0.307 L 0.36,5.527 V 3.386 L 0.316,3.482 h 2.36 C 2.775,3.482 2.86,3.449 2.93,3.382 3,3.314 3.035,3.231 3.035,3.132 3.035,3.038 3,2.959 2.93,2.895 2.86,2.83 2.775,2.798 2.676,2.798 H 0.298 L 0.36,2.868 V 0.36 C 0.36,0.26 0.325,0.175 0.255,0.105 0.184,0.035 0.1,0 0,0"
               style="fill:#304a48;fill-opacity:1;fill-rule:nonzero;stroke:none"
               id="path157757" /></g><g
             id="g157759"
             transform="translate(301.4096,32.447)"><path
               d="m 0,0 c 0,-0.1 -0.037,-0.184 -0.11,-0.255 -0.073,-0.07 -0.159,-0.105 -0.258,-0.105 -0.111,0 -0.201,0.035 -0.268,0.105 C -0.703,-0.184 -0.737,-0.1 -0.737,0 v 5.421 c 0,0.099 0.035,0.184 0.106,0.254 0.07,0.071 0.16,0.106 0.272,0.106 0.099,0 0.184,-0.035 0.254,-0.106 C -0.035,5.605 0,5.52 0,5.421 Z"
               style="fill:#304a48;fill-opacity:1;fill-rule:nonzero;stroke:none"
               id="path157761" /></g><g
             id="g157763"
             transform="translate(308.2426,37.8242)"><path
               d="m 0,0 c 0.099,-0.053 0.158,-0.132 0.175,-0.237 0.018,-0.105 -0.009,-0.205 -0.079,-0.298 -0.052,-0.07 -0.12,-0.11 -0.201,-0.118 -0.082,-0.009 -0.164,0.007 -0.246,0.048 -0.193,0.116 -0.4,0.209 -0.623,0.276 -0.222,0.067 -0.456,0.101 -0.701,0.101 -0.345,0 -0.662,-0.059 -0.948,-0.176 -0.286,-0.116 -0.535,-0.285 -0.746,-0.504 -0.21,-0.219 -0.374,-0.478 -0.491,-0.776 -0.117,-0.298 -0.175,-0.626 -0.175,-0.983 0,-0.386 0.061,-0.731 0.184,-1.035 0.123,-0.304 0.291,-0.563 0.504,-0.776 0.214,-0.214 0.462,-0.376 0.746,-0.487 0.284,-0.111 0.592,-0.167 0.926,-0.167 0.239,0 0.47,0.032 0.692,0.097 0.223,0.064 0.43,0.158 0.623,0.28 0.082,0.041 0.165,0.056 0.25,0.044 0.085,-0.011 0.154,-0.052 0.206,-0.122 C 0.173,-4.927 0.2,-5.025 0.18,-5.128 0.159,-5.229 0.102,-5.307 0.009,-5.36 c -0.146,-0.087 -0.313,-0.166 -0.5,-0.237 -0.187,-0.07 -0.382,-0.125 -0.583,-0.166 -0.202,-0.041 -0.403,-0.062 -0.601,-0.062 -0.422,0 -0.819,0.073 -1.193,0.219 -0.375,0.146 -0.707,0.356 -0.996,0.628 -0.289,0.271 -0.516,0.602 -0.68,0.991 -0.164,0.389 -0.245,0.829 -0.245,1.32 0,0.45 0.078,0.867 0.236,1.25 0.158,0.383 0.378,0.715 0.658,0.996 0.281,0.281 0.61,0.499 0.987,0.654 0.377,0.154 0.788,0.232 1.233,0.232 0.304,0 0.599,-0.04 0.886,-0.119 C -0.503,0.268 -0.24,0.152 0,0"
               style="fill:#304a48;fill-opacity:1;fill-rule:nonzero;stroke:none"
               id="path157765" /></g><g
             id="g157767"
             transform="translate(310.7077,38.2277)"><path
               d="m 0,0 h 3.123 c 0.099,0 0.184,-0.034 0.254,-0.101 0.07,-0.068 0.105,-0.151 0.105,-0.25 0,-0.1 -0.035,-0.18 -0.105,-0.241 C 3.307,-0.654 3.222,-0.684 3.123,-0.684 H 0.298 l 0.079,0.149 v -2.211 l -0.088,0.097 h 2.439 c 0.099,0 0.184,-0.032 0.254,-0.097 C 3.052,-2.81 3.087,-2.895 3.087,-3 3.087,-3.1 3.052,-3.18 2.982,-3.241 2.912,-3.303 2.827,-3.333 2.728,-3.333 H 0.316 l 0.061,0.087 v -2.272 l -0.053,0.062 h 2.799 c 0.099,0 0.184,-0.035 0.254,-0.105 0.07,-0.071 0.105,-0.149 0.105,-0.238 0,-0.099 -0.035,-0.181 -0.105,-0.245 C 3.307,-6.109 3.222,-6.14 3.123,-6.14 H 0 c -0.1,0 -0.184,0.035 -0.255,0.105 -0.07,0.07 -0.105,0.155 -0.105,0.254 v 5.421 c 0,0.099 0.035,0.184 0.105,0.255 C -0.184,-0.035 -0.1,0 0,0"
               style="fill:#304a48;fill-opacity:1;fill-rule:nonzero;stroke:none"
               id="path157769" /></g><g
             id="g157771"
             transform="translate(314.9859,47.3031)"><path
               d="M 0,0 C -0.063,0.012 -0.096,0.012 -0.096,0.012 -0.113,0 -0.652,-1.065 -1.395,-2.176 c -0.969,-1.429 -1.78,-2.189 -2.335,-2.189 -1.316,0 -1.174,2.54 -1.14,3.283 0.012,0.272 0.045,0.539 0.079,0.827 0.125,0.125 0.794,0.714 1.52,1.521 0.907,1.002 2.319,2.669 2.319,4.173 0.016,0.634 -0.176,1.319 -0.919,1.319 -1.111,0 -1.968,-0.81 -2.603,-1.729 -0.906,-1.32 -1.587,-3.605 -1.842,-6.094 -0.025,-0.259 -0.046,-0.606 -0.037,-0.986 -0.03,-0.042 -0.055,-0.084 -0.084,-0.125 -0.965,-1.429 -1.775,-2.189 -2.331,-2.189 -1.315,0 -1.173,2.54 -1.144,3.283 0.016,0.272 0.05,0.539 0.079,0.827 0.13,0.125 0.794,0.714 1.525,1.521 0.906,1.002 2.318,2.669 2.318,4.173 0.013,0.634 -0.175,1.319 -0.923,1.319 -0.622,0 -1.161,-0.254 -1.629,-0.634 -0.03,-0.025 -0.057,-0.053 -0.086,-0.078 -0.094,0.042 -0.189,0.077 -0.284,0.121 -1.006,0.467 -1.988,1.062 -2.891,1.757 1.233,3.408 1.853,7.056 1.647,10.517 -0.113,1.893 -1.521,4.542 -3.923,4.399 -2.49,-0.148 -4.041,-2.14 -3.857,-5.23 0.275,-4.615 2.13,-7.748 5.288,-10.247 l -0.723,-1.85 c -2.051,-5.261 -5.425,-8.474 -6.347,-8.529 -0.646,-0.039 -0.953,0.408 -1.024,1.609 -0.228,3.827 1.656,7.182 1.653,7.228 l 0.091,0.098 -0.056,0.093 C -19.468,7.56 -21.608,8.5 -22.3,8.459 -22.346,8.456 -22.389,8.408 -22.435,8.405 l -0.19,0.035 c -4.78,-10.754 -7.317,-12.479 -7.593,-12.495 -0.462,-0.027 -0.573,2.606 -0.573,2.606 -0.127,4.529 1.991,9.379 2.034,9.428 l -0.009,0.141 c -0.257,1.232 -3.032,1.95 -3.954,1.895 l -0.233,-0.014 -0.081,-0.193 c -0.029,-0.278 -1.908,-6.825 -1.71,-10.149 0.148,-2.493 1.643,-5.044 4.274,-4.888 1.288,0.077 2.129,1.562 2.683,2.382 0.721,1.109 1.603,2.597 2.556,4.508 l 0.826,1.668 c -0.331,-1.409 -0.517,-2.993 -0.423,-4.565 0.129,-2.169 1.873,-4.195 4.041,-4.066 1.155,0.069 2.794,2.066 3.699,3.233 2.187,2.909 3.586,5.908 4.849,8.808 l 0.075,0.285 c 0.842,-0.573 1.746,-1.072 2.699,-1.48 0.086,-0.038 0.175,-0.068 0.261,-0.105 -0.108,-0.133 -0.213,-0.267 -0.311,-0.41 -0.903,-1.32 -1.588,-3.605 -1.838,-6.094 -0.042,-0.397 -0.063,-0.99 -0.005,-1.608 -0.781,-1.228 -1.52,-1.897 -2.151,-1.955 -0.551,-0.05 -0.894,0.572 -0.969,0.693 -0.175,0.351 -0.271,0.706 -0.305,1.07 -0.016,0.175 -0.012,0.334 0.004,0.509 l 0.059,0.389 c 0.113,-0.005 0.209,0.004 0.301,0.012 0.869,0.079 2.097,0.606 2.009,1.6 -0.05,0.551 -0.764,0.681 -1.253,0.635 -1.09,-0.1 -1.909,-0.907 -2.319,-1.867 l -0.091,-0.23 c -0.176,-0.51 -0.251,-1.061 -0.209,-1.566 0.146,-1.579 1.29,-1.922 2.272,-1.834 1.191,0.108 2.072,1.203 2.694,2.164 0.167,-1.149 0.644,-2.264 1.788,-2.264 0.823,0 1.855,0.906 3.045,2.665 0.05,0.071 0.096,0.142 0.142,0.213 0.084,-1.329 0.501,-2.878 1.851,-2.878 0.823,0 1.854,0.906 3.045,2.665 0.873,1.286 1.508,2.573 1.508,2.573 0,0 -0.017,0.046 -0.063,0.079 m -3.429,4.553 c 0.81,1.362 1.604,1.52 1.904,1.52 0.301,0 0.381,-0.33 0.364,-0.664 0,-1.395 -1.316,-2.97 -2.235,-3.997 -0.572,-0.635 -1.094,-1.145 -1.366,-1.383 0.176,1.525 0.606,3.283 1.333,4.524 m -8.86,3.807 c -2.393,2.033 -4.007,5.038 -4.263,9.333 -0.126,2.122 0.521,4.475 2.597,4.598 2.219,0.132 3.186,-2.911 3.277,-4.437 0.162,-2.723 -0.384,-5.994 -1.611,-9.494 m 3.822,-3.807 c 0.113,0.192 0.226,0.359 0.343,0.505 0.188,0.251 0.376,0.443 0.551,0.581 0.451,0.372 0.823,0.434 1.011,0.434 0.301,0 0.38,-0.33 0.363,-0.664 0,-1.395 -1.316,-2.97 -2.235,-3.997 -0.572,-0.635 -1.094,-1.145 -1.365,-1.383 0.175,1.525 0.601,3.283 1.332,4.524 m -4.766,-4.474 c 0.397,0.038 0.576,-0.2 0.602,-0.484 0.083,-0.936 -1.112,-1.283 -1.755,-1.358 -0.096,-0.008 -0.192,0 -0.271,-0.008 0.2,0.768 0.697,1.783 1.424,1.85"
               style="fill:#304a48;fill-opacity:1;fill-rule:nonzero;stroke:none"
               id="path157773" /></g></g></g></g><text
       transform="matrix(1,0,0,-1,36,770.5355)"
       style="font-variant:normal;font-weight:600;font-stretch:normal;font-size:17.00000043px;font-family:'Quicksand SemiBold';-inkscape-font-specification:Quicksand-SemiBold;writing-mode:lr-tb;fill:#2e4a47;fill-opacity:1;fill-rule:nonzero;stroke:none"
       id="text157777"><tspan
         x="0 16.535999 36.321999 54.73 69.082001 83.928001 102.336 120.042"
         y="0"
         sodipodi:role="line"
         id="tspan157775"
         style="font-style:normal;font-variant:normal;font-weight:bold;font-stretch:normal;font-family:Roboto;-inkscape-font-specification:'Roboto Bold';font-size:17.00000043px">COULEURS</tspan></text><g
       id="g157779"
       transform="translate(36,754.9607)"><path
         d="M 0,0 H 78.331"
         style="fill:none;stroke:#668683;stroke-width:1;stroke-linecap:butt;stroke-linejoin:miter;stroke-miterlimit:4;stroke-dasharray:none;stroke-opacity:1"
         id="path157781" /></g><g
       id="g157797"
       transform="translate(62.3622,691.3315)"><path
         d="M 0,0 H 22.563"
         style="fill:none;stroke:#668683;stroke-width:2;stroke-linecap:butt;stroke-linejoin:miter;stroke-miterlimit:4;stroke-dasharray:none;stroke-opacity:1"
         id="path157799" /></g><g
       id="g157801"
       transform="translate(62.3622,400.0601)"><path
         d="M 0,0 H 22.563"
         style="fill:none;stroke:#668683;stroke-width:2;stroke-linecap:butt;stroke-linejoin:miter;stroke-miterlimit:4;stroke-dasharray:none;stroke-opacity:1"
         id="path157803" /></g><path
       d="m 62.3622,549.004 h 69.866 v 69.866 h -69.866 z"
       style="fill:#2f2d28;fill-opacity:0.52;fill-rule:nonzero;stroke:none"
       id="path157805" /><path
       d="m 254.235,549.004 h 69.866 v 69.866 h -69.866 z"
       style="fill:#23445a;fill-opacity:1;fill-rule:nonzero;stroke:none"
       id="path157809" /><path
       d="m 456.169,549.004 h 69.866 v 69.866 h -69.866 z"
       style="fill:#61503e;fill-opacity:1;fill-rule:nonzero;stroke:none"
       id="path157813" /><text
       xml:space="preserve"
       style="font-size:30px;line-height:1.45;font-family:sans-serif;stroke-width:0.75"
       x="434.32755"
       y="-541.1709"
       id="text378735"
       transform="scale(1,-1)"><tspan
         id="tspan378733"
         style="stroke-width:0.75"
         sodipodi:role="line" /></text><circle
       id="path508715"
       style="fill:#474540;stroke:#000000;stroke-width:0.75"
       cx="259.65579"
       cy="-537.72913"
       r="0.63512385"
       transform="scale(1,-1)" /><text
       xml:space="preserve"
       style="font-size:30px;line-height:1.45;font-family:sans-serif;stroke-width:0.75"
       x="76.741692"
       y="-507.69363"
       id="text596333"
       transform="scale(1,-1)"><tspan
         sodipodi:role="line"
         id="tspan596331"
         style="stroke-width:0.75"
         x="76.741692"
         y="-507.69363" /></text><text
       xml:space="preserve"
       style="font-style:normal;font-variant:normal;font-weight:bold;font-stretch:normal;font-size:14px;line-height:1.45;font-family:Roboto;-inkscape-font-specification:'Roboto weight=250';font-variant-ligatures:normal;font-variant-caps:normal;font-variant-numeric:normal;font-variant-east-asian:normal;white-space:pre;inline-size:0;stroke-width:0.75"
       x="252.64476"
       y="-528.03461"
       id="text624045"
       transform="matrix(1,0,0,-1,1.1527399,0)"><tspan
         id="tspan624043"
         style="font-style:normal;font-variant:normal;font-weight:bold;font-stretch:normal;font-size:14px;font-family:Roboto;-inkscape-font-specification:'Roboto weight=250';font-variant-ligatures:normal;font-variant-caps:normal;font-variant-numeric:normal;font-variant-east-asian:normal;stroke-width:0.75"
         x="252.64476"
         y="-528.03461">#<tspan
   style="font-style:normal;font-variant:normal;font-weight:normal;font-stretch:normal;font-family:Roboto;-inkscape-font-specification:Roboto"
   id="tspan17589">23445A</tspan></tspan></text><text
       xml:space="preserve"
       style="font-style:normal;font-variant:normal;font-weight:bold;font-stretch:normal;font-size:14px;line-height:1.45;font-family:Roboto;-inkscape-font-specification:'Roboto weight=250';font-variant-ligatures:normal;font-variant-caps:normal;font-variant-numeric:normal;font-variant-east-asian:normal;white-space:pre;inline-size:0;stroke-width:0.75"
       x="252.64476"
       y="-528.03461"
       id="text72810"
       transform="matrix(1,0,0,-1,-190.72006,0)"><tspan
         id="tspan72808"
         style="font-style:normal;font-variant:normal;font-weight:bold;font-stretch:normal;font-size:14px;font-family:Roboto;-inkscape-font-specification:'Roboto weight=250';font-variant-ligatures:normal;font-variant-caps:normal;font-variant-numeric:normal;font-variant-east-asian:normal;stroke-width:0.75"
         x="252.64476"
         y="-528.03461">#<tspan
   style="font-style:normal;font-variant:normal;font-weight:normal;font-stretch:normal;font-family:Roboto;-inkscape-font-specification:Roboto"
   id="tspan84814">474540</tspan></tspan></text><text
       xml:space="preserve"
       style="font-style:normal;font-variant:normal;font-weight:normal;font-stretch:normal;font-size:14px;line-height:1.45;font-family:Roboto;-inkscape-font-specification:Roboto;font-variant-ligatures:normal;font-variant-caps:normal;font-variant-numeric:normal;font-variant-east-asian:normal;white-space:pre;inline-size:0;stroke-width:0.75"
       x="252.64476"
       y="-528.03461"
       id="text91462"
       transform="matrix(1,0,0,-1,203.08674,0)"><tspan
         id="tspan91460"
         style="font-style:normal;font-variant:normal;font-weight:normal;font-stretch:normal;font-size:14px;font-family:Roboto;-inkscape-font-specification:Roboto;font-variant-ligatures:normal;font-variant-caps:normal;font-variant-numeric:normal;font-variant-east-asian:normal;stroke-width:0.75"
         x="252.64476"
         y="-528.03461">#61503E<tspan
   style="font-style:normal;font-variant:normal;font-weight:normal;font-stretch:normal;font-family:Roboto;-inkscape-font-specification:Roboto"
   id="tspan136142" /></tspan></text><text
       xml:space="preserve"
       style="font-size:14px;line-height:1.25;font-family:sans-serif;-inkscape-font-specification:'sans-serif, Normal';white-space:pre;inline-size:103.156;stroke-width:0.75"
       x="62.694336"
       y="-499.94223"
       id="text208001"
       transform="matrix(1,0,0,-1,-1.1192453,0)"><tspan
         x="62.694336"
         y="-499.94223"
         id="tspan96534">R : 27.8% 
</tspan><tspan
         x="62.694336"
         y="-482.44226"
         id="tspan96536">G : 27.1%
</tspan><tspan
         x="62.694336"
         y="-464.94226"
         id="tspan96538">B : 25.1% </tspan></text><text
       xml:space="preserve"
       style="font-size:14px;line-height:1.25;font-family:sans-serif;-inkscape-font-specification:'sans-serif, Normal';white-space:pre;inline-size:103.156;stroke-width:0.75"
       x="62.694336"
       y="-499.94223"
       id="text345"
       transform="matrix(1,0,0,-1,190.75355,0)"><tspan
         x="62.694336"
         y="-499.94223"
         id="tspan96540">R : 13.7% 
</tspan><tspan
         x="62.694336"
         y="-482.44226"
         id="tspan96542">G : 26.7%
</tspan><tspan
         x="62.694336"
         y="-464.94226"
         id="tspan96544">B : 27.1% </tspan></text><text
       xml:space="preserve"
       style="font-size:14px;line-height:1.25;font-family:sans-serif;-inkscape-font-specification:'sans-serif, Normal';white-space:pre;inline-size:103.156;stroke-width:0.75"
       x="62.694336"
       y="-499.94223"
       id="text15437"
       transform="matrix(1,0,0,-1,392.68755,0)"><tspan
         x="62.694336"
         y="-499.94223"
         id="tspan96546">R : 38% 
</tspan><tspan
         x="62.694336"
         y="-482.44226"
         id="tspan96548">G : 31.4%
</tspan><tspan
         x="62.694336"
         y="-464.94226"
         id="tspan96550">B : 24.3% </tspan></text><text
       xml:space="preserve"
       style="font-size:11px;line-height:1.25;font-family:sans-serif;-inkscape-font-specification:'sans-serif, Normal';stroke-width:0.75"
       x="61.282612"
       y="-666.75513"
       id="text36993"
       transform="scale(1,-1)"><tspan
         sodipodi:role="line"
         id="tspan36991"
         style="font-size:11px;stroke-width:0.75"
         x="61.282612"
         y="-666.75513">Pour les supports d'impression :</tspan></text><text
       xml:space="preserve"
       style="font-size:11px;line-height:1.25;font-family:sans-serif;-inkscape-font-specification:'sans-serif, Normal';stroke-width:0.75"
       x="61.282612"
       y="-719.1933"
       id="text60685"
       transform="scale(1,-1)"><tspan
         sodipodi:role="line"
         id="tspan60683"
         style="font-size:11px;stroke-width:0.75"
         x="61.282612"
         y="-719.1933">Mode CMJN</tspan></text><path
       d="m 62.3622,247.504 h 69.866 v 69.866 h -69.866 z"
       style="fill:#2f2d28;fill-opacity:0.52;fill-rule:nonzero;stroke:none"
       id="path75483" /><text
       xml:space="preserve"
       style="font-style:normal;font-variant:normal;font-weight:bold;font-stretch:normal;font-size:14px;line-height:1.45;font-family:Roboto;-inkscape-font-specification:'Roboto weight=250';font-variant-ligatures:normal;font-variant-caps:normal;font-variant-numeric:normal;font-variant-east-asian:normal;white-space:pre;inline-size:0;stroke-width:0.75"
       x="252.64476"
       y="-528.03461"
       id="text75489"
       transform="matrix(1,0,0,-1,1.1527399,-301.5)"><tspan
         id="tspan75487"
         style="font-style:normal;font-variant:normal;font-weight:bold;font-stretch:normal;font-size:14px;font-family:Roboto;-inkscape-font-specification:'Roboto weight=250';font-variant-ligatures:normal;font-variant-caps:normal;font-variant-numeric:normal;font-variant-east-asian:normal;stroke-width:0.75"
         x="252.64476"
         y="-528.03461">#<tspan
   style="font-style:normal;font-variant:normal;font-weight:normal;font-stretch:normal;font-family:Roboto;-inkscape-font-specification:Roboto"
   id="tspan75485">23445A</tspan></tspan></text><text
       xml:space="preserve"
       style="font-style:normal;font-variant:normal;font-weight:bold;font-stretch:normal;font-size:14px;line-height:1.45;font-family:Roboto;-inkscape-font-specification:'Roboto weight=250';font-variant-ligatures:normal;font-variant-caps:normal;font-variant-numeric:normal;font-variant-east-asian:normal;white-space:pre;inline-size:0;stroke-width:0.75"
       x="252.64476"
       y="-528.03461"
       id="text75495"
       transform="matrix(1,0,0,-1,-190.72006,-301.5)"><tspan
         id="tspan75493"
         style="font-style:normal;font-variant:normal;font-weight:bold;font-stretch:normal;font-size:14px;font-family:Roboto;-inkscape-font-specification:'Roboto weight=250';font-variant-ligatures:normal;font-variant-caps:normal;font-variant-numeric:normal;font-variant-east-asian:normal;stroke-width:0.75"
         x="252.64476"
         y="-528.03461">#<tspan
   style="font-style:normal;font-variant:normal;font-weight:normal;font-stretch:normal;font-family:Roboto;-inkscape-font-specification:Roboto"
   id="tspan75491">474540</tspan></tspan></text><text
       xml:space="preserve"
       style="font-style:normal;font-variant:normal;font-weight:normal;font-stretch:normal;font-size:14px;line-height:1.45;font-family:Roboto;-inkscape-font-specification:Roboto;font-variant-ligatures:normal;font-variant-caps:normal;font-variant-numeric:normal;font-variant-east-asian:normal;white-space:pre;inline-size:0;stroke-width:0.75"
       x="252.64476"
       y="-528.03461"
       id="text75501"
       transform="matrix(1,0,0,-1,203.08674,-301.5)"><tspan
         id="tspan75499"
         style="font-style:normal;font-variant:normal;font-weight:normal;font-stretch:normal;font-size:14px;font-family:Roboto;-inkscape-font-specification:Roboto;font-variant-ligatures:normal;font-variant-caps:normal;font-variant-numeric:normal;font-variant-east-asian:normal;stroke-width:0.75"
         x="252.64476"
         y="-528.03461">#61503E<tspan
   style="font-style:normal;font-variant:normal;font-weight:normal;font-stretch:normal;font-family:Roboto;-inkscape-font-specification:Roboto"
   id="tspan75497" /></tspan></text><text
       xml:space="preserve"
       style="font-size:14px;line-height:1.25;font-family:sans-serif;-inkscape-font-specification:'sans-serif, Normal';white-space:pre;inline-size:103.156;stroke-width:0.75"
       x="62.694336"
       y="-499.94223"
       id="text75509"
       transform="matrix(1,0,0,-1,190.75355,-301.5)"><tspan
         x="62.694336"
         y="-499.94223"
         id="tspan96552">R : 13.7% 
</tspan><tspan
         x="62.694336"
         y="-482.44226"
         id="tspan96554">G : 26.7%
</tspan><tspan
         x="62.694336"
         y="-464.94226"
         id="tspan96556">B : 27.1% </tspan></text><text
       xml:space="preserve"
       style="font-size:11px;line-height:1.25;font-family:sans-serif;-inkscape-font-specification:'sans-serif, Normal';stroke-width:0.75"
       x="61.282612"
       y="-365.25513"
       id="text75513"
       transform="scale(1,-1)"><tspan
         sodipodi:role="line"
         id="tspan75511"
         style="font-size:11px;stroke-width:0.75"
         x="61.282612"
         y="-365.25513">Pour les supports WEB :</tspan></text><text
       xml:space="preserve"
       style="font-size:14px;line-height:1.25;font-family:sans-serif;-inkscape-font-specification:'sans-serif, Normal';white-space:pre;inline-size:103.156;stroke-width:0.75"
       x="62.694336"
       y="-499.94223"
       id="text75521"
       transform="matrix(1,0,0,-1,-1.1192453,-301.5)"><tspan
         x="62.694336"
         y="-499.94223"
         id="tspan96558">R : 27.8% 
</tspan><tspan
         x="62.694336"
         y="-482.44226"
         id="tspan96560">G : 27.1%
</tspan><tspan
         x="62.694336"
         y="-464.94226"
         id="tspan96562">B : 25.1% </tspan></text><text
       xml:space="preserve"
       style="font-size:14px;line-height:1.25;font-family:sans-serif;-inkscape-font-specification:'sans-serif, Normal';white-space:pre;inline-size:103.156;stroke-width:0.75"
       x="62.694336"
       y="-499.94223"
       id="text75529"
       transform="matrix(1,0,0,-1,392.68755,-301.5)"><tspan
         x="62.694336"
         y="-499.94223"
         id="tspan96564">R : 38% 
</tspan><tspan
         x="62.694336"
         y="-482.44226"
         id="tspan96566">G : 31.4%
</tspan><tspan
         x="62.694336"
         y="-464.94226"
         id="tspan96568">B : 24.3% </tspan></text><path
       d="m 254.235,247.504 h 69.866 v 69.866 h -69.866 z"
       style="fill:#23445a;fill-opacity:1;fill-rule:nonzero;stroke:none"
       id="path75531" /><path
       d="m 456.169,247.504 h 69.866 v 69.866 h -69.866 z"
       style="fill:#61503e;fill-opacity:1;fill-rule:nonzero;stroke:none"
       id="path75533" /></g><g
     inkscape:groupmode="layer"
     id="layer1"
     inkscape:label="charte-graphique-well-office 1" /></svg>
